<svg width="101" height="76" viewBox="0 0 101 76" fill="none" xmlns="http://www.w3.org/2000/svg">
<path d="M92.5833 0H8.41667C3.82958 0.168333 0.168333 3.82958 0 8.41667V67.3333C0.168333 71.9204 3.82958 75.5817 8.41667 75.75H92.5833C97.1704 75.5817 100.832 71.9204 101 67.3333V8.41667C100.923 6.20909 100.011 4.11299 98.449 2.55103C96.887 0.989074 94.7909 0.0774562 92.5833 0ZM92.5833 67.3333H8.41667V8.41667H92.5833V67.3333ZM58.9167 58.9167V53.6563C58.9167 46.6704 44.8608 43.1354 37.875 43.1354C30.8892 43.1354 16.8333 46.6704 16.8333 53.6563V58.9167H58.9167ZM37.875 16.8333C35.0847 16.8333 32.4087 17.9418 30.4356 19.9148C28.4626 21.8879 27.3542 24.5639 27.3542 27.3542C27.3542 28.7358 27.6263 30.1039 28.155 31.3803C28.6837 32.6568 29.4587 33.8166 30.4356 34.7935C32.4087 36.7666 35.0847 37.875 37.875 37.875C39.2566 37.875 40.6247 37.6029 41.9011 37.0742C43.1776 36.5454 44.3374 35.7705 45.3144 34.7935C46.2913 33.8166 47.0663 32.6568 47.595 31.3803C48.1237 30.1039 48.3958 28.7358 48.3958 27.3542C48.3958 25.9726 48.1237 24.6045 47.595 23.328C47.0663 22.0516 46.2913 20.8918 45.3144 19.9148C44.3374 18.9379 43.1776 18.1629 41.9011 17.6342C40.6247 17.1055 39.2566 16.8333 37.875 16.8333ZM58.9167 16.8333V21.0417H84.1667V16.8333H58.9167ZM58.9167 25.25V29.4583H84.1667V25.25H58.9167ZM58.9167 33.6667V37.875H75.75V33.6667H58.9167Z" fill="#DED27C"/>
</svg>
